<svg width="16" height="16" viewBox="0 0 16 16" fill="none" xmlns="http://www.w3.org/2000/svg">
<path d="M13.6666 10.6667V12.3333C13.6666 13.62 12.6199 14.6667 11.3333 14.6667H4.66659C3.37992 14.6667 2.33325 13.62 2.33325 12.3333V11.9C2.33325 10.8533 3.18659 10 4.23325 10H12.9999C13.3666 10 13.6666 10.3 13.6666 10.6667Z" fill="#132985"/>
<path d="M10.3333 1.33398H5.66659C2.99992 1.33398 2.33325 2.00065 2.33325 4.66732V9.72065C2.83992 9.27399 3.50659 9.00065 4.23325 9.00065H12.9999C13.3666 9.00065 13.6666 8.70065 13.6666 8.33399V4.66732C13.6666 2.00065 12.9999 1.33398 10.3333 1.33398ZM8.66659 7.16732H5.33325C5.05992 7.16732 4.83325 6.94065 4.83325 6.66732C4.83325 6.39398 5.05992 6.16732 5.33325 6.16732H8.66659C8.93992 6.16732 9.16659 6.39398 9.16659 6.66732C9.16659 6.94065 8.93992 7.16732 8.66659 7.16732ZM10.6666 4.83398H5.33325C5.05992 4.83398 4.83325 4.60732 4.83325 4.33398C4.83325 4.06065 5.05992 3.83398 5.33325 3.83398H10.6666C10.9399 3.83398 11.1666 4.06065 11.1666 4.33398C11.1666 4.60732 10.9399 4.83398 10.6666 4.83398Z" fill="#132985"/>
</svg>
