<svg width="45" height="44" viewBox="0 0 45 44" fill="none" xmlns="http://www.w3.org/2000/svg">
<path d="M30.4347 23.4786C25.2555 26.0871 18.9423 24.0032 16.3338 18.824C13.7253 13.6448 15.8093 7.3316 20.9885 4.7231C26.1676 2.1146 32.4808 4.19856 35.0893 9.37776C37.6978 14.5569 35.6139 20.8701 30.4347 23.4786ZM23.1327 8.98061C20.3049 10.4049 19.1671 13.8518 20.5913 16.6797C22.0155 19.5075 25.4625 20.6453 28.2904 19.2211C31.1182 17.7969 32.256 14.3499 30.8318 11.522C29.4076 8.69422 25.9606 7.55638 23.1327 8.98061Z" fill="url(#paint0_linear_1687_36276)"/>
<path d="M23.7721 39.1505C18.5929 41.759 12.2797 39.675 9.6712 34.4958C7.06271 29.3166 9.14667 23.0035 14.3259 20.395C19.505 17.7865 25.8182 19.8704 28.4267 25.0496C31.0352 30.2288 28.9513 36.542 23.7721 39.1505ZM16.4702 24.6525C13.6423 26.0767 12.5045 29.5237 13.9287 32.3515C15.353 35.1794 18.7999 36.3172 21.6278 34.893C24.4556 33.4687 25.5934 30.0218 24.1692 27.1939C22.745 24.3661 19.298 23.2283 16.4702 24.6525Z" fill="url(#paint1_linear_1687_36276)"/>
<defs>
<linearGradient id="paint0_linear_1687_36276" x1="33.0125" y1="5.25419" x2="17.6803" y2="22.2903" gradientUnits="userSpaceOnUse">
<stop stop-color="#879CF3"/>
<stop offset="1" stop-color="#5867A7"/>
</linearGradient>
<linearGradient id="paint1_linear_1687_36276" x1="26.3499" y1="20.9261" x2="11.0177" y2="37.9621" gradientUnits="userSpaceOnUse">
<stop stop-color="#879CF3"/>
<stop offset="1" stop-color="#5867A7"/>
</linearGradient>
</defs>
</svg>
