<svg width="228" height="214" viewBox="0 0 228 214" fill="none" xmlns="http://www.w3.org/2000/svg">
<g clip-path="url(#clip0_1687_36249)">
<path d="M84.0651 188.611L86.9302 196.209L117.057 188.565L112.829 177.352L84.0651 188.611Z" fill="#AF6F71"/>
<path d="M76.1065 189.502L85.3449 213.999L85.6491 213.88C88.1312 212.909 90.1328 210.972 91.2136 208.497C92.2945 206.022 92.366 203.211 91.4126 200.682L91.4124 200.681L85.7698 185.719L76.1065 189.502Z" fill="#1E1E1E"/>
<path d="M129.845 93.4805L142.974 94.7329L143.626 134.532C143.452 136.483 142.535 138.286 141.072 139.557C139.608 140.827 137.715 141.463 135.797 141.328L127.473 140.744L129.845 93.4805Z" fill="#E5E5E5"/>
<path d="M83.5595 91.5221L92.5428 91.4043L93.075 138.694C91.0898 138.762 89.1124 138.412 87.2659 137.666C85.4195 136.921 83.7436 135.795 82.3429 134.361C80.9422 132.926 79.8466 131.212 79.1246 129.327C78.4026 127.442 78.0696 125.426 78.1464 123.404L83.5595 91.5221Z" fill="#E5E5E5"/>
<path d="M135.685 155.495C135.898 156.867 136.207 158.222 136.609 159.548C137.063 160.847 137.762 162.048 138.177 163.36C139.498 167.542 137.666 172.206 134.741 175.434C132.205 178.222 128.93 180.203 125.313 181.138C122.674 181.814 119.93 181.911 117.211 182.005C109.68 182.265 101.956 182.498 94.8201 180.032C92.5656 179.234 90.3881 178.226 88.3149 177.021C87.6604 176.704 87.0837 176.241 86.627 175.667C86.0828 174.878 86.0131 173.854 86.0179 172.89C86.0339 169.637 86.6811 166.401 86.5275 163.152C86.4424 161.353 86.1118 159.555 86.2745 157.761C86.4997 155.723 87.3374 153.807 88.673 152.273C90.0086 150.739 91.7768 149.663 93.7355 149.193C95.7597 148.75 97.8593 148.991 99.9201 149.193C105.27 149.717 110.642 149.962 116.016 149.927C121.507 149.891 126.964 149.037 132.427 148.948C134.043 148.921 134.01 149.429 134.525 151.022C134.999 152.488 135.386 153.982 135.685 155.495Z" fill="#B0B8D6"/>
<path d="M157.156 152.851C158.633 152.473 160.154 152.308 161.676 152.361C163.274 152.451 164.836 152.887 166.256 153.64C167.677 154.392 168.924 155.444 169.915 156.726C170.905 158.007 171.617 159.489 172.002 161.072C172.387 162.656 172.437 164.304 172.148 165.909C171.779 167.647 171.176 169.325 170.357 170.895C169.158 173.373 167.721 175.845 165.502 177.433C164.204 178.362 162.702 178.942 161.217 179.511L149.531 183.997C147.812 184.656 146.093 185.316 144.356 185.928C135.634 189 126.54 190.842 117.328 191.403C114.522 191.573 111.673 191.62 108.936 190.969C108.286 190.815 107.593 190.585 107.217 190.023C106.994 189.628 106.863 189.186 106.833 188.731L106.114 183.602C106.012 182.88 105.915 182.12 106.175 181.44C106.504 180.578 107.33 180.036 108.117 179.575C115.8 175.079 124.771 172.599 131.238 166.429C132.76 164.976 134.034 162.674 135.884 161.687C137.981 160.568 140.451 159.929 142.62 158.898C147.359 156.644 152.019 154.054 157.156 152.851Z" fill="#B0B8D6"/>
<path opacity="0.1" d="M145.49 159.767C141.359 161.085 123.92 170.221 120.931 173.411C121.331 173.558 134.926 165.796 135.333 165.671C139.041 164.538 142.77 163.396 146.291 161.737C147 161.403 150.893 159.834 150.717 158.924C150.518 157.896 146.223 159.532 145.49 159.767Z" fill="black"/>
<path d="M120.56 80.1036L131.682 88.7069C131.682 88.7069 143.417 89.0809 143.02 96.7238C142.624 104.367 137.927 140.553 137.927 140.553L136.908 153.005L117.579 158.616C107.135 161.648 96.1006 161.889 85.5388 159.316L87.8358 146.824C87.8358 146.824 78.5345 90.0944 84.1379 87.5967C89.7414 85.099 93.2435 85.8127 93.2435 85.8127L100.267 79.5684L120.56 80.1036Z" fill="#F4901F"/>
<path d="M87.6401 66.2078C87.6401 77.3763 97.7763 75.6871 110.28 75.6871C122.784 75.6871 132.92 77.3763 132.92 66.2078C132.92 55.0393 127.969 35.2422 110.28 35.2422C91.982 35.2422 87.6401 55.0393 87.6401 66.2078Z" fill="#1E1E1E"/>
<path d="M98.5103 69.9928C92.5609 63.9314 92.5609 54.1038 98.5103 48.0423C104.46 41.9808 114.106 41.9808 120.055 48.0423C126.005 54.1038 126.005 63.9314 120.055 69.9928C114.106 76.0543 104.46 76.0543 98.5103 69.9928Z" fill="#AF6F71"/>
<path d="M127.957 58.6241H121.932L119.273 51.0407L118.742 58.6241H115.862L114.311 54.2004L114.001 58.6241H92.6017C92.6017 54.2664 94.3008 50.0872 97.3253 47.0058C100.35 43.9245 104.452 42.1934 108.729 42.1934H111.83C116.107 42.1934 120.209 43.9245 123.234 47.0058C126.258 50.0872 127.957 54.2664 127.957 58.6241Z" fill="#1E1E1E"/>
<path d="M94.9951 81.8887H125.464V119.354H94.9951V81.8887Z" fill="#F4F4F4"/>
<path d="M123.784 188.254L120.919 195.852L90.792 188.208L95.0209 176.994L123.784 188.254Z" fill="#AF6F71"/>
<path d="M122.079 185.363L116.437 200.326L116.437 200.326C115.483 202.855 115.555 205.667 116.636 208.142C117.716 210.617 119.718 212.553 122.2 213.525L122.504 213.644L131.743 189.146L122.079 185.363Z" fill="#1E1E1E"/>
<path d="M63.5631 149.942C61.1429 149.324 58.6339 149.149 56.1536 149.427C54.1728 149.649 52.1319 150.211 50.6857 151.607C48.9254 153.308 48.3598 155.937 48.3126 158.408C48.2352 163.329 49.8372 168.125 52.845 171.976C53.5795 172.95 54.453 173.807 55.4363 174.518C56.4971 175.194 57.6278 175.749 58.8078 176.173L84.9786 186.69C91.8636 189.457 98.7729 192.231 105.954 194.055C106.345 194.247 106.794 194.274 107.203 194.128C107.613 193.983 107.949 193.677 108.137 193.28C108.143 193.267 108.149 193.255 108.154 193.243C110.447 189.906 112.371 186.321 113.89 182.553C113.962 182.463 114.012 182.357 114.035 182.244C114.058 182.131 114.054 182.014 114.024 181.902C113.993 181.791 113.936 181.688 113.859 181.604C113.781 181.52 113.685 181.455 113.577 181.417L95.0666 170.581C93.7406 169.805 92.3999 169.017 91.2989 167.936C90.4989 167.146 89.8439 166.217 89.3646 165.192C88.9809 164.376 88.9451 162.449 88.455 161.846C87.9751 161.255 86.3336 161.207 85.5755 160.975C84.5062 160.641 83.4591 160.238 82.4407 159.768C78.2999 157.88 74.6127 155.138 70.6432 152.928C68.4168 151.632 66.0378 150.628 63.5631 149.942Z" fill="#B0B8D6"/>
<path opacity="0.1" d="M74.0577 158.036C77.2379 160.469 81.3557 162.706 84.5077 165.204C85.5834 166.056 103.516 176.328 103.77 177.692C100.829 178.197 82.0971 164.846 79.4171 163.514C76.7371 162.182 74.3613 160.303 72.0071 158.438C71.4071 157.963 68.8646 156.534 70.5868 156.003C71.557 155.704 73.3414 157.549 74.0577 158.036Z" fill="black"/>
<path opacity="0.17" d="M135.97 105.794L135.55 102.486C135.55 102.486 119.861 103.653 122.312 107.578C124.764 111.503 130.717 111.86 130.717 111.86L135.97 105.794Z" fill="#2F2E41"/>
<path d="M124.127 91.4126C123.228 91.5134 122.363 91.8156 121.592 92.2976C120.822 92.7796 120.165 93.4295 119.671 94.2004C119.22 94.9039 118.913 95.6931 118.769 96.5204C118.625 97.3477 118.647 98.1961 118.832 99.0147C119.018 99.8333 119.365 100.605 119.851 101.284C120.337 101.963 120.952 102.534 121.661 102.965C121.921 103.121 122.192 103.257 122.472 103.371L132.115 133.424C132.395 134.017 132.786 134.548 133.268 134.986C133.749 135.424 134.311 135.761 134.921 135.978C135.531 136.194 136.176 136.285 136.821 136.247C137.465 136.208 138.096 136.04 138.677 135.752C139.257 135.464 139.776 135.062 140.204 134.569C140.631 134.076 140.959 133.502 141.168 132.879C141.377 132.257 141.463 131.599 141.421 130.942C141.38 130.286 141.211 129.644 140.925 129.054L130.67 99.3348C130.949 98.3514 130.986 97.3131 130.778 96.3117C130.569 95.3102 130.122 94.3766 129.475 93.5933C128.828 92.81 128.002 92.2012 127.069 91.8209C126.136 91.4405 125.126 91.3003 124.127 91.4126Z" fill="#AF6F71"/>
<path d="M135.826 102.77C135.826 102.77 130.3 112.388 122.311 107.579L130.053 137.765H136.576L143.324 136.481L141.435 124.01L135.826 102.77Z" fill="#E5E5E5"/>
<path d="M96.3714 109.343L100.949 102.94C100.949 102.94 98.7489 96.2988 90.218 98.7275C90.218 98.7275 84.7894 111.107 96.3714 109.343Z" fill="#E5E5E5"/>
<path opacity="0.17" d="M96.3714 109.343L100.949 102.94C100.949 102.94 98.7489 96.2988 90.218 98.7275C90.218 98.7275 84.7894 111.107 96.3714 109.343Z" fill="#2F2E41"/>
<path d="M95.1588 86.9734C93.8382 87.5988 92.7819 88.6865 92.1819 90.0385C91.582 91.3905 91.4783 92.917 91.8898 94.3403L81.6341 124.06C81.3483 124.65 81.1797 125.291 81.1381 125.948C81.0965 126.604 81.1826 127.263 81.3916 127.885C81.6005 128.508 81.9282 129.082 82.3557 129.575C82.7832 130.068 83.3022 130.47 83.8827 130.758C84.4633 131.046 85.0939 131.214 85.7385 131.253C86.383 131.291 87.0287 131.2 87.6385 130.984C88.2483 130.767 88.81 130.43 89.2915 129.992C89.773 129.554 90.1647 129.023 90.4441 128.43L100.088 98.3764C100.368 98.2623 100.639 98.1265 100.899 97.9702C101.607 97.5399 102.223 96.9682 102.709 96.2895C103.195 95.6107 103.541 94.8388 103.727 94.0202C103.913 93.2016 103.934 92.3532 103.79 91.5259C103.646 90.6986 103.34 89.9095 102.889 89.2059C102.394 88.435 101.738 87.7852 100.967 87.3032C100.197 86.8212 99.3312 86.5189 98.4325 86.4181C97.3118 86.2887 96.1779 86.481 95.1588 86.9734Z" fill="#AF6F71"/>
<path d="M100.949 102.941C100.949 102.941 93.3964 107.61 90.218 98.7285L79.5754 127.278L82.7378 132.913L83.1951 132.952C85.0817 133.112 86.9782 132.804 88.7219 132.052C90.4655 131.301 92.0042 130.13 93.2056 128.64C95.6562 125.599 97.3244 121.985 98.0595 118.123L100.949 102.941Z" fill="#E5E5E5"/>
<path d="M221.674 206.885C216.122 205.212 212.976 199.355 214.649 193.803C216.322 188.25 222.179 185.105 227.732 186.778C233.284 188.451 236.429 194.308 234.757 199.86C233.084 205.413 227.227 208.558 221.674 206.885ZM226.357 191.342C223.325 190.429 220.127 192.146 219.214 195.178C218.3 198.209 220.018 201.407 223.049 202.321C226.081 203.234 229.279 201.517 230.192 198.485C231.106 195.454 229.388 192.256 226.357 191.342Z" fill="url(#paint0_linear_1687_36249)"/>
<path d="M206.054 213.668C200.501 211.996 197.356 206.138 199.029 200.586C200.702 195.033 206.559 191.888 212.111 193.561C217.664 195.234 220.809 201.091 219.136 206.644C217.463 212.196 211.606 215.341 206.054 213.668ZM210.736 198.125C207.705 197.212 204.507 198.929 203.593 201.961C202.68 204.993 204.397 208.191 207.429 209.104C210.461 210.017 213.659 208.3 214.572 205.268C215.485 202.237 213.768 199.039 210.736 198.125Z" fill="url(#paint1_linear_1687_36249)"/>
</g>
<defs>
<linearGradient id="paint0_linear_1687_36249" x1="236.088" y1="195.44" x2="213.24" y2="197.244" gradientUnits="userSpaceOnUse">
<stop stop-color="#879CF3"/>
<stop offset="1" stop-color="#5867A7"/>
</linearGradient>
<linearGradient id="paint1_linear_1687_36249" x1="220.468" y1="202.223" x2="197.62" y2="204.027" gradientUnits="userSpaceOnUse">
<stop stop-color="#879CF3"/>
<stop offset="1" stop-color="#5867A7"/>
</linearGradient>
<clipPath id="clip0_1687_36249">
<rect width="227.29" height="214" fill="white" transform="matrix(-1 0 0 1 227.582 0)"/>
</clipPath>
</defs>
</svg>
