<svg width="149" height="31" viewBox="0 0 149 31" fill="none" xmlns="http://www.w3.org/2000/svg">
<path d="M22.3495 1.86651C19.8592 0.622169 16.9824 0 13.7192 0H0.0654297V30.0558H13.7192C16.9814 30.0558 19.8582 29.4337 22.3495 28.1893C24.8409 26.945 26.7874 25.1989 28.1892 22.951C29.5909 20.7041 30.2921 18.0641 30.2928 15.0309C30.2928 11.9685 29.5916 9.32077 28.1892 7.08769C26.7868 4.8546 24.8402 3.11421 22.3495 1.86651ZM22.0277 19.9646C21.2115 21.367 20.0663 22.4475 18.5923 23.2062C17.1183 23.965 15.3794 24.344 13.3757 24.3433H7.01944V5.7095H13.3757C15.379 5.7095 17.1179 6.08868 18.5923 6.84706C20.0667 7.60543 21.2118 8.67876 22.0277 10.067C22.8432 11.4557 23.251 13.1086 23.251 15.0259C23.251 16.9156 22.8432 18.5618 22.0277 19.9646Z" fill="#132985"/>
<path d="M52.5769 8.75798C50.6297 7.09763 47.896 6.26746 44.3759 6.26746C42.5478 6.26703 40.7281 6.51255 38.9655 6.99741C37.1901 7.48439 35.6731 8.1713 34.4143 9.05814L36.8185 13.7385C37.6482 13.0804 38.6571 12.5579 39.8453 12.1712C41.0164 11.7874 42.241 11.5918 43.4734 11.5915C45.277 11.5915 46.6152 11.9923 47.4879 12.7937C48.3606 13.5951 48.7978 14.7115 48.7995 16.1428H43.4739C41.1268 16.1428 39.2233 16.4362 37.7634 17.0231C36.3035 17.6099 35.2372 18.4189 34.5646 19.4501C33.892 20.4805 33.5557 21.6828 33.5557 23.057C33.5557 24.3736 33.8992 25.5614 34.5863 26.6205C35.2734 27.6795 36.2608 28.5167 37.5485 29.1322C38.8369 29.7476 40.3827 30.0553 42.186 30.0553C44.218 30.0553 45.8781 29.6686 47.1665 28.8951C48.0156 28.3938 48.7246 27.6864 49.2278 26.8384V29.7108H55.4962V16.5292C55.4962 13.0087 54.5231 10.4183 52.5769 8.75798ZM48.798 22.4117C48.3971 23.4422 47.7531 24.2223 46.8659 24.7519C45.9787 25.2816 44.9768 25.5463 43.8603 25.546C42.6866 25.546 41.7634 25.2956 41.0908 24.7948C40.4182 24.2941 40.0819 23.6142 40.0819 22.7553C40.0819 21.9818 40.3753 21.3377 40.9622 20.8232C41.549 20.3086 42.6296 20.051 44.2038 20.0504H48.798V22.4117Z" fill="#132985"/>
<path d="M71.9405 24.7303C71.0529 24.7303 70.3517 24.4656 69.8369 23.9363C69.322 23.4069 69.0644 22.6554 69.064 21.6818V12.2787H74.8174V7.12609H69.064V1.50134H62.3658V7.12609H58.8018V12.2787H62.3658V21.7676C62.3658 24.5159 63.1243 26.5842 64.6414 27.9725C66.1585 29.3607 68.2772 30.0549 70.9976 30.0549C72.0035 30.0576 73.0059 29.9351 73.9815 29.6902C74.9407 29.447 75.7636 29.0819 76.4503 28.595L74.6469 23.8722C73.9013 24.4449 72.9992 24.731 71.9405 24.7303Z" fill="#132985"/>
<path d="M96.7988 18.032C96.7988 19.4351 96.5697 20.6015 96.1117 21.5314C95.6536 22.4613 95.0251 23.1484 94.226 23.5927C93.4246 24.0366 92.5086 24.2584 91.4782 24.258C89.9894 24.258 88.8372 23.8072 88.0216 22.9056C87.2061 22.0039 86.7983 20.5941 86.7983 18.6762V6.61096H80.1011V19.6639C80.1011 22.0399 80.5161 23.9935 81.3461 25.5247C82.1761 27.056 83.3426 28.1937 84.8455 28.9379C86.3482 29.6829 88.0585 30.055 89.9764 30.0543C91.7511 30.0543 93.3899 29.6465 94.8929 28.831C95.752 28.3682 96.5165 27.7483 97.1468 27.0033V29.7108H103.503V6.61096H96.7988V18.032Z" fill="#132985"/>
<path d="M147.531 11.0547C146.715 9.55175 145.599 8.43537 144.182 7.70559C142.766 6.9758 141.141 6.6109 139.309 6.6109C137.104 6.6109 135.151 7.14042 133.448 8.19945C132.51 8.77456 131.679 9.50858 130.992 10.3686C130.47 9.51323 129.77 8.78015 128.94 8.21913C127.351 7.14563 125.498 6.60889 123.379 6.60889C121.49 6.60889 119.809 7.01683 118.335 7.83271C117.498 8.29314 116.749 8.89807 116.123 9.61951V6.95444H109.725V30.0542H116.423V18.4617C116.423 17.0876 116.638 15.9569 117.067 15.0697C117.497 14.1825 118.098 13.517 118.87 13.0731C119.644 12.6295 120.517 12.4075 121.49 12.4072C122.892 12.4072 123.972 12.8509 124.731 13.7384C125.49 14.626 125.87 15.9999 125.869 17.8604V30.0542H132.566V18.4617C132.566 17.0876 132.78 15.9569 133.21 15.0697C133.639 14.1825 134.24 13.517 135.013 13.0731C135.787 12.6295 136.66 12.4075 137.632 12.4072C139.034 12.4072 140.122 12.8509 140.895 13.7384C141.668 14.626 142.055 15.9999 142.056 17.8604V30.0542H148.754V16.8298C148.754 14.483 148.347 12.558 147.531 11.0547Z" fill="#132985"/>
</svg>
