<svg width="116" height="116" viewBox="0 0 116 116" fill="none" xmlns="http://www.w3.org/2000/svg">
<path fill-rule="evenodd" clip-rule="evenodd" d="M58.0003 106.333C84.6948 106.333 106.334 84.6945 106.334 58C106.334 31.3055 84.6948 9.66669 58.0003 9.66669C31.3058 9.66669 9.66699 31.3055 9.66699 58C9.66699 84.6945 31.3058 106.333 58.0003 106.333ZM58.0003 43.5C60.5641 43.5 63.0228 42.4816 64.8357 40.6687C66.6485 38.8559 67.667 36.3971 67.667 33.8334C67.667 31.2696 66.6485 28.8108 64.8357 26.998C63.0228 25.1851 60.5641 24.1667 58.0003 24.1667C55.4366 24.1667 52.9778 25.1851 51.165 26.998C49.3521 28.8108 48.3337 31.2696 48.3337 33.8334C48.3337 36.3971 49.3521 38.8559 51.165 40.6687C52.9778 42.4816 55.4366 43.5 58.0003 43.5ZM30.4165 44.9984C29.5385 44.6576 28.5624 44.6718 27.6948 45.0381C26.8272 45.4044 26.1362 46.094 25.7681 46.9608C25.4 47.8277 25.3837 48.8038 25.7227 49.6824C26.0617 50.5611 26.7293 51.2733 27.5842 51.6684L27.5938 51.6732L27.6035 51.678L27.6518 51.6974L27.8065 51.765C28.7205 52.1463 29.6423 52.5089 30.5712 52.8525C32.4078 53.5534 34.9888 54.4862 37.9517 55.4142C42.727 56.9222 48.759 58.5075 54.3753 59.0295V65.0229C54.3753 67.1012 53.776 69.1457 52.6498 70.9002L40.4505 89.871C40.1928 90.2715 40.0165 90.7189 39.9317 91.1875C39.8469 91.6562 39.8552 92.1369 39.9562 92.6023C40.0572 93.0678 40.2488 93.5087 40.5202 93.9001C40.7917 94.2914 41.1375 94.6255 41.538 94.8832C41.9385 95.1409 42.3858 95.3172 42.8545 95.402C43.3231 95.4868 43.8039 95.4785 44.2693 95.3775C44.7347 95.2765 45.1757 95.0848 45.5671 94.8134C45.9584 94.542 46.2925 94.1962 46.5502 93.7957L58.0052 75.98L69.4505 93.7957C69.7082 94.1962 70.0422 94.542 70.4336 94.8134C70.8249 95.0848 71.2659 95.2765 71.7313 95.3775C72.1968 95.4785 72.6775 95.4868 73.1462 95.402C73.6148 95.3172 74.0621 95.1409 74.4627 94.8832C74.8632 94.6255 75.209 94.2914 75.4804 93.9001C75.7518 93.5087 75.9435 93.0678 76.0445 92.6023C76.1454 92.1369 76.1538 91.6562 76.069 91.1875C75.9841 90.7189 75.8079 90.2715 75.5502 89.871L63.3508 70.9002C62.2235 69.1455 61.6245 67.1036 61.6253 65.018V59.0295C67.2417 58.5075 73.2737 56.9222 78.0538 55.4142C81.481 54.3329 84.8638 53.1155 88.1942 51.765L88.3537 51.6974L88.402 51.678L88.4117 51.6732C89.2811 51.2878 89.9643 50.5762 90.3139 49.6918C90.6636 48.8073 90.6516 47.8209 90.2806 46.9452C89.9097 46.0695 89.2094 45.3746 88.3309 45.0104C87.4524 44.6463 86.4659 44.6419 85.5842 44.9984L85.5503 45.0129L85.4198 45.066L84.8882 45.2835C81.9261 46.468 78.9209 47.5418 75.8788 48.5025C70.1852 50.2909 63.3702 51.9584 58.0003 51.9584C52.6305 51.9584 45.8203 50.2909 40.1267 48.5025C36.9023 47.483 33.7195 46.3367 30.5857 45.066L30.4503 45.0129L30.4165 44.9984Z" fill="#132985"/>
</svg>
