<svg width="116" height="116" viewBox="0 0 116 116" fill="none" xmlns="http://www.w3.org/2000/svg">
<path d="M19.3332 62.8333C19.3221 53.3059 22.8288 44.1097 29.1809 37.0088C35.5329 29.9078 44.283 25.4019 53.7528 24.3554C63.2226 23.309 72.7454 25.7955 80.4946 31.3382C88.2439 36.8809 93.674 45.0895 95.7434 54.3895C98.4466 55.4791 100.822 57.2487 102.641 59.5267C104.459 61.8046 105.657 64.5136 106.121 67.3912C106.262 65.8928 106.333 64.3736 106.333 62.8333C106.333 36.1388 84.6944 14.5 57.9999 14.5C31.3054 14.5 9.66655 36.1388 9.66655 62.8333C9.6581 69.1745 10.9013 75.4549 13.3248 81.3146C15.7483 87.1744 19.3045 92.4982 23.7895 96.9808C24.6952 97.8884 25.9243 98.399 27.2064 98.4004C28.4886 98.4017 29.7187 97.8937 30.6263 96.9881C31.5339 96.0824 32.0445 94.8533 32.0459 93.5712C32.0472 92.2891 31.5392 91.0589 30.6335 90.1513C27.0439 86.5663 24.1977 82.3075 22.2585 77.6195C20.3192 72.9315 19.3251 67.9066 19.3332 62.8333ZM85.5015 53.621C84.1102 49.4771 81.8001 45.7014 78.744 42.5761C75.6878 39.4508 71.9647 37.0568 67.853 35.5732C63.7413 34.0895 59.3474 33.5545 54.9998 34.0082C50.6522 34.4619 46.4634 35.8925 42.7466 38.1932C39.0298 40.4938 35.8812 43.6049 33.5362 47.2938C31.1911 50.9828 29.7104 55.1541 29.2046 59.496C28.6988 63.8378 29.1811 68.2378 30.6153 72.367C32.0496 76.4962 34.3988 80.2478 37.4872 83.3412C37.9363 83.7905 38.4695 84.1471 39.0563 84.3904C39.6432 84.6337 40.2722 84.7591 40.9075 84.7593C41.5428 84.7595 42.1719 84.6346 42.759 84.3917C43.346 84.1488 43.8794 83.7926 44.3288 83.3436C44.7782 82.8945 45.1347 82.3613 45.378 81.7745C45.6214 81.1876 45.7467 80.5586 45.7469 79.9233C45.7472 79.288 45.6223 78.6589 45.3793 78.0718C45.1364 77.4848 44.7803 76.9514 44.3312 76.502C42.2078 74.3777 40.6086 71.7879 39.6604 68.9379C38.7122 66.088 38.441 63.0563 38.8684 60.0833C39.2957 57.1103 40.4099 54.2778 42.1226 51.8103C43.8352 49.3429 46.0992 47.3084 48.735 45.8683C51.3708 44.4281 54.3058 43.6219 57.3074 43.5135C60.309 43.4052 63.2946 43.9977 66.0274 45.244C68.7602 46.4903 71.1649 48.3562 73.0511 50.6937C74.9372 53.0312 76.2527 55.7761 76.8934 58.7105C79.1856 56.1844 82.1831 54.4103 85.5015 53.621ZM48.3332 62.8333C48.3332 60.2696 49.3517 57.8108 51.1645 55.998C52.9774 54.1851 55.4361 53.1667 57.9999 53.1667C60.5636 53.1667 63.0224 54.1851 64.8352 55.998C66.6481 57.8108 67.6665 60.2696 67.6665 62.8333C67.6665 65.3971 66.6481 67.8558 64.8352 69.6687C63.0224 71.4815 60.5636 72.5 57.9999 72.5C55.4361 72.5 52.9774 71.4815 51.1645 69.6687C49.3517 67.8558 48.3332 65.3971 48.3332 62.8333ZM101.5 70.0833C101.5 73.288 100.227 76.3615 97.9608 78.6275C95.6947 80.8936 92.6213 82.1667 89.4165 82.1667C86.2119 82.1667 83.1384 80.8936 80.8723 78.6275C78.6063 76.3615 77.3332 73.288 77.3332 70.0833C77.3332 66.8786 78.6063 63.8052 80.8723 61.5391C83.1384 59.2731 86.2119 58 89.4165 58C92.6213 58 95.6947 59.2731 97.9608 61.5391C100.227 63.8052 101.5 66.8786 101.5 70.0833ZM111.167 96.0625C111.167 103.583 104.951 111.167 89.4165 111.167C73.8822 111.167 67.6665 103.612 67.6665 96.0625V95.5647C67.6665 90.828 71.5042 87 76.236 87H102.597C107.334 87 111.167 90.8328 111.167 95.5647V96.0625Z" fill="#132985"/>
</svg>
