<svg width="44" height="44" viewBox="0 0 44 44" fill="none" xmlns="http://www.w3.org/2000/svg">
<path d="M21.5327 0L7.082e-06 10.7663V23.0589C-0.00234062 25.7535 0.579039 28.4167 1.70415 30.8651C2.81084 33.2592 4.36385 35.4202 6.27997 37.2326C8.2534 39.0267 10.4961 40.4625 13.1447 41.5391C15.7446 42.5706 18.5721 43.1082 21.5312 43.1082C24.4904 43.1082 27.3169 42.572 29.9207 41.5406C32.5664 40.464 34.8096 39.0281 36.783 37.2326C38.6991 35.4202 40.2521 33.2592 41.3588 30.8651C42.4821 28.3969 43.0654 25.7945 43.0654 23.0589V10.7663L21.5327 0ZM38.6315 23.0589C38.6315 25.1339 38.2052 27.0826 37.3288 29.0147C36.4657 30.8833 35.2555 32.5711 33.7626 33.9881C32.1401 35.4551 30.3417 36.5803 28.2676 37.426C26.1688 38.2558 23.9023 38.6762 21.5327 38.6762C19.1631 38.6762 16.8937 38.2533 14.7968 37.427C12.7218 36.5813 10.9234 35.4565 9.30038 33.9891C7.8078 32.5717 6.59808 30.8836 5.73558 29.0147C4.86066 27.0855 4.43487 25.1373 4.43487 23.0589V12.9833L7.04795 14.2903L21.5327 21.5327L36.0029 14.2976L38.6315 12.9852V23.0589Z" fill="#132985"/>
<path d="M22.2238 26.7491L21.5326 27.0957L20.8405 26.7491L8.771 20.7151V28.532C14.141 29.2922 18.4816 31.5743 21.5249 34.6175C24.5671 31.5762 29.3554 29.2941 34.2778 28.532V20.7224L22.2233 26.7496L22.2238 26.7491Z" fill="#F4901F"/>
</svg>
