<svg width="124" height="26" viewBox="0 0 124 26" fill="none" xmlns="http://www.w3.org/2000/svg">
<path d="M12.9871 0L4.27139e-06 6.49355V13.9076C-0.00141171 15.5328 0.349238 17.1391 1.02783 18.6158C1.69532 20.0597 2.63198 21.3632 3.78766 22.4563C4.9779 23.5383 6.33056 24.4043 7.928 25.0537C9.49612 25.6758 11.2015 26 12.9862 26C14.771 26 16.4757 25.6766 18.0462 25.0546C19.6419 24.4052 20.9948 23.5392 22.1851 22.4563C23.3408 21.3632 24.2774 20.0597 24.9449 18.6158C25.6224 17.1271 25.9742 15.5575 25.9742 13.9076V6.49355L12.9871 0ZM23.3 13.9076C23.3 15.1591 23.0429 16.3344 22.5143 17.4998C21.9937 18.6268 21.2638 19.6447 20.3634 20.4994C19.3848 21.3842 18.3001 22.0628 17.0492 22.5729C15.7833 23.0734 14.4163 23.3269 12.9871 23.3269C11.5579 23.3269 10.1892 23.0719 8.92446 22.5735C7.67295 22.0634 6.58825 21.385 5.60938 20.5C4.70915 19.6451 3.97953 18.627 3.45932 17.4998C2.93163 16.3362 2.67482 15.1612 2.67482 13.9076V7.83066L4.25086 8.61898L12.9871 12.9871L21.7146 8.62338L23.3 7.83184V13.9076Z" fill="#F4F4F4"/>
<path d="M13.4039 16.1332L12.9871 16.3422L12.5696 16.1332L5.29008 12.4939V17.2085C8.52894 17.667 11.1469 19.0434 12.9824 20.8789C14.8173 19.0446 17.7052 17.6682 20.6741 17.2085V12.4983L13.4037 16.1335L13.4039 16.1332Z" fill="#F4901F"/>
<path d="M47.4145 5.06179C45.9125 4.31129 44.1774 3.93604 42.2093 3.93604H33.9742V22.0637H42.2093C44.1768 22.0637 45.9119 21.6885 47.4145 20.938C48.9171 20.1875 50.0912 19.1343 50.9366 17.7786C51.782 16.4234 52.2049 14.8311 52.2054 13.0017C52.2054 11.1547 51.7824 9.55771 50.9366 8.21086C50.0908 6.86401 48.9167 5.81432 47.4145 5.06179ZM47.2204 15.9774C46.7281 16.8232 46.0374 17.4749 45.1484 17.9325C44.2594 18.3901 43.2106 18.6187 42.0021 18.6183H38.1684V7.37963H42.0021C43.2104 7.37963 44.2592 7.60833 45.1484 8.06573C46.0376 8.52313 46.7283 9.17049 47.2204 10.0078C47.7123 10.8453 47.9582 11.8423 47.9582 12.9987C47.9582 14.1384 47.7123 15.1313 47.2204 15.9774Z" fill="#F4F4F4"/>
<path d="M65.6456 9.21819C64.4711 8.21677 62.8223 7.71606 60.6992 7.71606C59.5967 7.71581 58.4991 7.86389 57.4361 8.15633C56.3653 8.45004 55.4503 8.86434 54.6911 9.39922L56.1411 12.2221C56.6415 11.8252 57.2501 11.5101 57.9667 11.2768C58.673 11.0453 59.4116 10.9273 60.1549 10.9272C61.2427 10.9272 62.0498 11.1689 62.5762 11.6523C63.1026 12.1356 63.3663 12.8089 63.3673 13.6722H60.1552C58.7396 13.6722 57.5915 13.8492 56.711 14.2032C55.8305 14.5571 55.1874 15.045 54.7817 15.6669C54.376 16.2884 54.1732 17.0136 54.1732 17.8424C54.1732 18.6365 54.3804 19.3529 54.7948 19.9917C55.2092 20.6304 55.8047 21.1354 56.5814 21.5066C57.3585 21.8778 58.2908 22.0634 59.3784 22.0634C60.604 22.0634 61.6053 21.8301 62.3824 21.3636C62.8945 21.0612 63.3221 20.6346 63.6256 20.1231V21.8555H67.4063V13.9053C67.4063 11.782 66.8194 10.2196 65.6456 9.21819ZM63.3664 17.4532C63.1246 18.0747 62.7361 18.5452 62.201 18.8647C61.666 19.1842 61.0617 19.3438 60.3883 19.3436C59.6804 19.3436 59.1236 19.1926 58.7179 18.8906C58.3122 18.5885 58.1094 18.1785 58.1094 17.6604C58.1094 17.1939 58.2864 16.8055 58.6403 16.4951C58.9943 16.1848 59.646 16.0294 60.5955 16.029H63.3664V17.4532Z" fill="#F4F4F4"/>
<path d="M77.3245 18.8517C76.7892 18.8517 76.3662 18.6921 76.0557 18.3728C75.7452 18.0536 75.5898 17.6003 75.5896 17.0131V11.3417H79.0596V8.23403H75.5896V4.84155H71.5496V8.23403H69.4001V11.3417H71.5496V17.0648C71.5496 18.7224 72.0071 19.9699 72.9221 20.8072C73.8372 21.6445 75.115 22.0632 76.7558 22.0632C77.3625 22.0648 77.967 21.9909 78.5555 21.8432C79.134 21.6965 79.6303 21.4764 80.0445 21.1826L78.9568 18.3342C78.5071 18.6796 77.963 18.8521 77.3245 18.8517Z" fill="#F4F4F4"/>
<path d="M92.3175 14.812C92.3175 15.6582 92.1794 16.3618 91.9031 16.9226C91.6268 17.4835 91.2477 17.8979 90.7658 18.1658C90.2824 18.4336 89.73 18.5673 89.1085 18.5671C88.2105 18.5671 87.5156 18.2952 87.0237 17.7514C86.5318 17.2076 86.2859 16.3573 86.2859 15.2005V7.92358H82.2466V15.7963C82.2466 17.2293 82.4969 18.4076 82.9975 19.3311C83.4981 20.2547 84.2016 20.9409 85.1081 21.3897C86.0144 21.839 87.0459 22.0635 88.2027 22.0631C89.2731 22.0631 90.2615 21.8171 91.168 21.3252C91.6862 21.0461 92.1473 20.6722 92.5274 20.2229V21.8559H96.3611V7.92358H92.3175V14.812Z" fill="#F4F4F4"/>
<path d="M122.916 10.6035C122.423 9.69706 121.75 9.02374 120.896 8.58358C120.041 8.14342 119.062 7.92334 117.956 7.92334C116.627 7.92334 115.449 8.2427 114.422 8.88144C113.856 9.22831 113.354 9.67102 112.94 10.1898C112.625 9.67383 112.203 9.23168 111.702 8.89331C110.744 8.24585 109.627 7.92212 108.349 7.92212C107.21 7.92212 106.195 8.16816 105.306 8.66025C104.802 8.93795 104.35 9.30281 103.972 9.73793V8.13054H100.114V22.0628H104.153V15.071C104.153 14.2422 104.283 13.5602 104.542 13.0251C104.801 12.49 105.163 12.0886 105.629 11.8209C106.096 11.5533 106.623 11.4195 107.209 11.4193C108.055 11.4193 108.706 11.6869 109.164 12.2222C109.622 12.7575 109.851 13.5862 109.85 14.7083V22.0628H113.889V15.071C113.889 14.2422 114.019 13.5602 114.278 13.0251C114.537 12.49 114.9 12.0886 115.366 11.8209C115.832 11.5533 116.359 11.4195 116.945 11.4193C117.791 11.4193 118.447 11.6869 118.913 12.2222C119.38 12.7575 119.613 13.5862 119.613 14.7083V22.0628H123.653V14.0867C123.653 12.6713 123.408 11.5102 122.916 10.6035Z" fill="#F4F4F4"/>
</svg>
