<svg width="82" height="67" viewBox="0 0 82 67" fill="none" xmlns="http://www.w3.org/2000/svg">
<path d="M104.386 -30.7192C111.866 -21.7635 116.524 -10.7906 117.768 0.811922C119.013 12.4145 116.789 24.1255 111.378 34.4641C105.967 44.8027 97.6111 53.3046 87.3681 58.8945C77.125 64.4845 65.4543 66.9115 53.8319 65.8686C42.2095 64.8258 31.1574 60.3599 22.0731 53.0357C12.9888 45.7116 6.28037 35.8581 2.79614 24.7213C-0.688085 13.5845 -0.791626 1.66462 2.49861 -9.53101C5.78885 -20.7266 12.3251 -30.6952 21.2808 -38.1761L33.946 -23.0139C27.9891 -18.038 23.6415 -11.4074 21.453 -3.96058C19.2645 3.48622 19.3334 11.4148 21.6509 18.8224C23.9685 26.2301 28.4306 32.7842 34.473 37.6559C40.5155 42.5276 47.8668 45.4981 55.5975 46.1917C63.3282 46.8854 71.091 45.2711 77.9042 41.5529C84.7174 37.8347 90.275 32.1797 93.8743 25.3029C97.4735 18.4261 98.9527 10.6365 98.1249 2.91905C97.297 -4.7984 94.1993 -12.0971 89.2234 -18.054L104.386 -30.7192Z" fill="url(#paint0_linear_2234_24915)"/>
<defs>
<linearGradient id="paint0_linear_2234_24915" x1="18.7045" y1="-36.0241" x2="99.5049" y2="50.2335" gradientUnits="userSpaceOnUse">
<stop stop-color="#879CF3"/>
<stop offset="1" stop-color="#5867A7"/>
</linearGradient>
</defs>
</svg>
