<svg width="26" height="26" viewBox="0 0 26 26" fill="none" xmlns="http://www.w3.org/2000/svg">
<path d="M13.0209 3.53125C9.57295 3.53125 6.77086 6.33333 6.77086 9.78125V12.7917C6.77086 13.4271 6.50003 14.3958 6.17711 14.9375L4.9792 16.9271C4.23961 18.1563 4.75003 19.5208 6.1042 19.9792C10.5938 21.4792 15.4375 21.4792 19.9271 19.9792C21.1875 19.5625 21.7396 18.0729 21.0521 16.9271L19.8542 14.9375C19.5417 14.3958 19.2709 13.4271 19.2709 12.7917V9.78125C19.2709 6.34375 16.4584 3.53125 13.0209 3.53125Z" stroke="#404040" stroke-width="2.34375" stroke-miterlimit="10" stroke-linecap="round"/>
<path d="M14.9479 3.8335C14.625 3.73975 14.2917 3.66683 13.9479 3.62516C12.9479 3.50016 11.9896 3.57308 11.0938 3.8335C11.3958 3.06266 12.1458 2.521 13.0208 2.521C13.8958 2.521 14.6458 3.06266 14.9479 3.8335Z" stroke="#404040" stroke-width="2.34375" stroke-miterlimit="10" stroke-linecap="round" stroke-linejoin="round"/>
<path d="M16.1458 20.354C16.1458 22.0728 14.7395 23.479 13.0208 23.479C12.1666 23.479 11.3749 23.1248 10.8124 22.5623C10.2499 21.9998 9.89575 21.2082 9.89575 20.354" stroke="#404040" stroke-width="2.34375" stroke-miterlimit="10"/>
</svg>
