<svg width="16" height="16" viewBox="0 0 16 16" fill="none" xmlns="http://www.w3.org/2000/svg">
<path d="M11.22 10.4268C11.6667 10.1334 12.2533 10.4534 12.2533 10.9868V11.8468C12.2533 12.6934 11.5933 13.6001 10.8 13.8668L8.67334 14.5734C8.30001 14.7001 7.69334 14.7001 7.32667 14.5734L5.20001 13.8668C4.40001 13.6001 3.74667 12.6934 3.74667 11.8468V10.9801C3.74667 10.4534 4.33334 10.1334 4.77334 10.4201L6.14667 11.3134C6.67334 11.6668 7.34001 11.8401 8.00667 11.8401C8.67334 11.8401 9.34001 11.6668 9.86667 11.3134L11.22 10.4268Z" fill="#132985"/>
<path d="M13.32 4.30703L9.32668 1.68703C8.60668 1.2137 7.42001 1.2137 6.70001 1.68703L2.68668 4.30703C1.40001 5.14036 1.40001 7.02703 2.68668 7.86703L3.75335 8.56036L6.70001 10.4804C7.42001 10.9537 8.60668 10.9537 9.32668 10.4804L12.2533 8.56036L13.1667 7.96036V10.0004C13.1667 10.2737 13.3933 10.5004 13.6667 10.5004C13.94 10.5004 14.1667 10.2737 14.1667 10.0004V6.72036C14.4333 5.86036 14.16 4.86036 13.32 4.30703Z" fill="#132985"/>
</svg>
