<svg width="16" height="16" viewBox="0 0 16 16" fill="none" xmlns="http://www.w3.org/2000/svg">
<path fill-rule="evenodd" clip-rule="evenodd" d="M10.0217 5.25442C10.0217 7.57073 8.17237 9.50883 5.81726 9.50883C3.46215 9.50883 1.61281 7.57073 1.61281 5.25442C1.61281 2.9381 3.46215 1 5.81726 1C8.17237 1 10.0217 2.9381 10.0217 5.25442ZM5.81726 8.02473C7.31676 8.02473 8.53234 6.78442 8.53234 5.25442C8.53234 3.72441 7.31676 2.4841 5.81726 2.4841C4.31776 2.4841 3.10218 3.72441 3.10218 5.25442C3.10218 6.78442 4.31776 8.02473 5.81726 8.02473ZM2.49061 12.5251C2.48955 12.5283 2.48937 12.5289 2.48937 12.5265V12.5316V12.5366V12.5417V12.5468V12.5519V12.5569V12.562V12.5671V12.5722V12.5772V12.5823V12.5874V12.5924V12.5975V12.6026V12.6076V12.6127V12.6178V12.6228V12.6279V12.633V12.638V12.6431V12.6482V12.6532V12.6583V12.6633V12.6684V12.6735V12.6785V12.6836V12.6886V12.6937V12.6987V12.7038V12.7088V12.7139V12.7189V12.724V12.729V12.734V12.7391V12.7441V12.7491V12.7542V12.7592V12.7642V12.7693V12.7743V12.7793V12.7843V12.7894V12.7944V12.7994V12.8044V12.8094V12.8144V12.8195V12.8245V12.8295V12.8345V12.8395V12.8445V12.8495V12.8545V12.8594V12.8644V12.8694V12.8744V12.8794V12.8843V12.8893V12.8943V12.8993V12.9042V12.9092V12.9141V12.9191V12.9241V12.929V12.934V12.9389V12.9438V12.9488V12.9537V12.9586V12.9636V12.9685V12.9734V12.9783V12.9832V12.9882V12.9931V12.998V13.0029V13.0078V13.0127V13.0175V13.0224V13.0273V13.0322V13.0371V13.0419V13.0468V13.0517V13.0565V13.0614V13.0662V13.0711V13.0759V13.0807V13.0856V13.0904V13.0952V13.1V13.1049V13.1097V13.1145V13.1193V13.1241V13.1289V13.1336V13.1384V13.1432V13.148V13.1527V13.1575V13.1623V13.167V13.1718V13.1765V13.1812V13.186V13.1907V13.1954V13.2002V13.2049V13.2096V13.2143V13.219V13.2237V13.2283V13.233V13.2377V13.2424V13.247V13.2517V13.2563V13.261V13.2656V13.2703V13.2749V13.2795V13.2841V13.2887V13.2933V13.2979V13.3025V13.3071V13.3117V13.3163V13.3208V13.3254V13.33V13.3345V13.339V13.3436V13.3481V13.3526V13.3572V13.3617V13.3662V13.3707V13.3752V13.3796V13.3841V13.3886V13.393V13.3975V13.402V13.4064V13.4108V13.4153V13.4197V13.4241V13.4285V13.4329V13.4373V13.4417V13.4461V13.4504V13.4548V13.4591V13.4635V13.4678V13.4722V13.4765V13.4808V13.4851V13.4894V13.4937V13.498V13.5023V13.5066V13.5108V13.5151V13.5193V13.5236V13.5278V13.532V13.5362V13.5404V13.5446V13.5488V13.553V13.5572V13.5613V13.5655V13.5697V13.5738V13.5779V13.582V13.5862V13.5903V13.5944V13.5985V13.6025V13.6066V13.6107V13.6147V13.6188V13.6228V13.6268V13.6308V13.6349V13.6389V13.6428V13.6468V13.6508V13.6548V13.6587V13.6627V13.6666V13.6705V13.6744V13.6783V13.6822V13.6861V13.69V13.6939V13.6977V13.7016V13.7054V13.7092V13.7131V13.7169V13.7207V13.7245V13.7282V13.732V13.7358V13.7395V13.7433V13.747V13.7507V13.7544V13.7581V13.7618V13.7655V13.7691V13.7728V13.7764V13.7801V13.7837V13.7873V13.7909V13.7945V13.7981V13.8017V13.8052V13.8088V13.8123V13.8159V13.8194V13.8229V13.8264V13.8299V13.8333V13.8368V13.8402V13.8437V13.8471V13.8505V13.8539V13.8573V13.8607V13.8641V13.8674V13.8708V13.8741V13.8775V13.8808V13.8841V13.8874V13.8906V13.8939V13.8972V13.9004V13.9036V13.9069V13.9101V13.9133V13.9164V13.9196V13.9228V13.9259V13.929V13.9322V13.9353V13.9384V13.9415V13.9445V13.9476V13.9506V13.9537V13.9567V13.9597V13.9627V13.9657V13.9687V13.9716V13.9746V13.9775V13.9804V13.9833V13.9862V13.9891V13.992V13.9948V13.9977V14.0005V14.0033V14.0061V14.0089V14.0117V14.0144V14.0172V14.0199V14.0227V14.0254V14.0281V14.0307V14.0334V14.0361V14.0387V14.0413V14.0439V14.0465V14.0491V14.0517V14.0543V14.0568V14.0593V14.0618V14.0644V14.0668V14.0693V14.0718V14.0742V14.0766V14.0791V14.0815V14.0839V14.0862V14.0886V14.0909V14.0933V14.0956V14.0979V14.1002V14.1024V14.1047V14.1069V14.1092V14.1114V14.1136V14.1157V14.1179V14.1201V14.1222V14.1243V14.1264V14.1285V14.1306V14.1327V14.1347V14.1367V14.1387V14.1407V14.1427V14.1447V14.1467V14.1486V14.1505V14.1524V14.1543V14.1562V14.158V14.1599V14.1617V14.1635V14.1653V14.1671V14.1689V14.1706V14.1723V14.1741V14.1758V14.1774V14.1791V14.1808V14.1824V14.184V14.1856V14.1872V14.1888V14.1903V14.1919V14.1934V14.1949V14.1964V14.1978V14.1993V14.2007V14.2022V14.2036V14.2049V14.2063V14.2077V14.209V14.2103V14.2116V14.2129V14.2142V14.2154V14.2166V14.2179V14.2191V14.2202V14.2214V14.2225V14.2237V14.2248V14.2259V14.227V14.228V14.2291V14.2301V14.2311V14.233V14.2349V14.2367V14.2385V14.2401V14.2417V14.2433V14.2447V14.2461V14.2474V14.2486V14.2498V14.2509V14.2519V14.2532V14.2544V14.2554V14.2565V14.2576C2.48937 14.6674 2.15596 15 1.74468 15C1.33341 15 1 14.6678 1 14.2579V14.2568V14.2557V14.2544V14.2532V14.2519V14.2509V14.2498V14.2486V14.2474V14.2461V14.2447V14.2433V14.2417V14.2401V14.2385V14.2367V14.2349V14.233V14.2311V14.2301V14.2291V14.228V14.227V14.2259V14.2248V14.2237V14.2225V14.2214V14.2202V14.2191V14.2179V14.2166V14.2154V14.2142V14.2129V14.2116V14.2103V14.209V14.2077V14.2063V14.2049V14.2036V14.2022V14.2007V14.1993V14.1978V14.1964V14.1949V14.1934V14.1919V14.1903V14.1888V14.1872V14.1856V14.184V14.1824V14.1808V14.1791V14.1774V14.1758V14.1741V14.1723V14.1706V14.1689V14.1671V14.1653V14.1635V14.1617V14.1599V14.158V14.1562V14.1543V14.1524V14.1505V14.1486V14.1467V14.1447V14.1427V14.1407V14.1387V14.1367V14.1347V14.1327V14.1306V14.1285V14.1264V14.1243V14.1222V14.1201V14.1179V14.1157V14.1136V14.1114V14.1092V14.1069V14.1047V14.1024V14.1002V14.0979V14.0956V14.0933V14.0909V14.0886V14.0862V14.0839V14.0815V14.0791V14.0766V14.0742V14.0718V14.0693V14.0668V14.0644V14.0618V14.0593V14.0568V14.0543V14.0517V14.0491V14.0465V14.0439V14.0413V14.0387V14.0361V14.0334V14.0307V14.0281V14.0254V14.0227V14.0199V14.0172V14.0144V14.0117V14.0089V14.0061V14.0033V14.0005V13.9977V13.9948V13.992V13.9891V13.9862V13.9833V13.9804V13.9775V13.9746V13.9716V13.9687V13.9657V13.9627V13.9597V13.9567V13.9537V13.9506V13.9476V13.9445V13.9415V13.9384V13.9353V13.9322V13.929V13.9259V13.9228V13.9196V13.9164V13.9133V13.9101V13.9069V13.9036V13.9004V13.8972V13.8939V13.8906V13.8874V13.8841V13.8808V13.8775V13.8741V13.8708V13.8674V13.8641V13.8607V13.8573V13.8539V13.8505V13.8471V13.8437V13.8402V13.8368V13.8333V13.8299V13.8264V13.8229V13.8194V13.8159V13.8123V13.8088V13.8052V13.8017V13.7981V13.7945V13.7909V13.7873V13.7837V13.7801V13.7764V13.7728V13.7691V13.7655V13.7618V13.7581V13.7544V13.7507V13.747V13.7433V13.7395V13.7358V13.732V13.7282V13.7245V13.7207V13.7169V13.7131V13.7092V13.7054V13.7016V13.6977V13.6939V13.69V13.6861V13.6822V13.6783V13.6744V13.6705V13.6666V13.6627V13.6587V13.6548V13.6508V13.6468V13.6428V13.6389V13.6349V13.6308V13.6268V13.6228V13.6188V13.6147V13.6107V13.6066V13.6025V13.5985V13.5944V13.5903V13.5862V13.582V13.5779V13.5738V13.5697V13.5655V13.5613V13.5572V13.553V13.5488V13.5446V13.5404V13.5362V13.532V13.5278V13.5236V13.5193V13.5151V13.5108V13.5066V13.5023V13.498V13.4937V13.4894V13.4851V13.4808V13.4765V13.4722V13.4678V13.4635V13.4591V13.4548V13.4504V13.4461V13.4417V13.4373V13.4329V13.4285V13.4241V13.4197V13.4153V13.4108V13.4064V13.402V13.3975V13.393V13.3886V13.3841V13.3796V13.3752V13.3707V13.3662V13.3617V13.3572V13.3526V13.3481V13.3436V13.339V13.3345V13.33V13.3254V13.3208V13.3163V13.3117V13.3071V13.3025V13.2979V13.2933V13.2887V13.2841V13.2795V13.2749V13.2703V13.2656V13.261V13.2563V13.2517V13.247V13.2424V13.2377V13.233V13.2283V13.2237V13.219V13.2143V13.2096V13.2049V13.2002V13.1954V13.1907V13.186V13.1812V13.1765V13.1718V13.167V13.1623V13.1575V13.1527V13.148V13.1432V13.1384V13.1336V13.1289V13.1241V13.1193V13.1145V13.1097V13.1049V13.1V13.0952V13.0904V13.0856V13.0807V13.0759V13.0711V13.0662V13.0614V13.0565V13.0517V13.0468V13.0419V13.0371V13.0322V13.0273V13.0224V13.0175V13.0127V13.0078V13.0029V12.998V12.9931V12.9882V12.9832V12.9783V12.9734V12.9685V12.9636V12.9586V12.9537V12.9488V12.9438V12.9389V12.934V12.929V12.9241V12.9191V12.9141V12.9092V12.9042V12.8993V12.8943V12.8893V12.8843V12.8794V12.8744V12.8694V12.8644V12.8594V12.8545V12.8495V12.8445V12.8395V12.8345V12.8295V12.8245V12.8195V12.8144V12.8094V12.8044V12.7994V12.7944V12.7894V12.7843V12.7793V12.7743V12.7693V12.7642V12.7592V12.7542V12.7491V12.7441V12.7391V12.734V12.729V12.724V12.7189V12.7139V12.7088V12.7038V12.6987V12.6937V12.6886V12.6836V12.6785V12.6735V12.6684V12.6633V12.6583V12.6532V12.6482V12.6431V12.638V12.633V12.6279V12.6228V12.6178V12.6127V12.6076V12.6026V12.5975V12.5924V12.5874V12.5823V12.5772V12.5722V12.5671V12.562V12.5569V12.5519V12.5468V12.5417V12.5366V12.5316V12.5265C1 11.638 1.74667 11.0184 2.51199 10.6634C3.33646 10.281 4.46883 10.053 5.81731 10.053C7.16578 10.053 8.29815 10.281 9.12262 10.6634C9.88794 11.0184 10.6346 11.638 10.6346 12.5265L10.6346 13.8792V14.17V14.2368V14.2528V14.2567V14.2579C10.6346 14.6677 10.3012 15 9.88992 15C9.47865 15 9.14524 14.6678 9.14524 14.258V14.2567V14.2528V14.2368V14.17L9.14524 13.8792V12.5265C9.14524 12.5289 9.14505 12.5283 9.144 12.5251C9.13495 12.4972 9.06206 12.2723 8.49409 12.0089C7.91875 11.742 7.0148 11.5371 5.81731 11.5371C4.61981 11.5371 3.71586 11.742 3.14052 12.0089C2.57255 12.2723 2.49965 12.4972 2.49061 12.5251ZM10.4472 2.4841C10.4472 2.07428 11.0639 1.74204 11.4752 1.74204C13.4219 1.74204 15 3.31458 15 5.2544C15 7.19423 13.4219 8.76677 11.4752 8.76677C11.0639 8.76677 10.4472 8.43456 10.4472 8.02473C10.4472 7.61491 11.0639 7.28267 11.4752 7.28267C12.5993 7.28267 13.5106 6.37459 13.5106 5.2544C13.5106 4.13422 12.5993 3.22614 11.4752 3.22614C11.0639 3.22614 10.4472 2.89392 10.4472 2.4841ZM10.7305 10.1025C10.7305 9.69264 11.0639 9.36041 11.4752 9.36041C12.6961 9.36041 13.5976 9.77259 14.1906 10.403C14.7671 11.0158 15 11.7803 15 12.4111V12.4192V12.4272V12.4353V12.4434V12.4514V12.4594V12.4674V12.4753V12.4833V12.4912V12.4991V12.5069V12.5148V12.5226V12.5304V12.5382V12.546V12.5537V12.5615V12.5692V12.5769V12.5845V12.5922V12.5998V12.6074V12.615V12.6226V12.6301V12.6376V12.6451V12.6526V12.6601V12.6675V12.6749V12.6823V12.6897V12.6971V12.7044V12.7117V12.719V12.7263V12.7336V12.7408V12.748V12.7552V12.7624V12.7695V12.7767V12.7838V12.7909V12.798V12.805V12.812V12.8191V12.8261V12.833V12.84V12.8469V12.8538V12.8607V12.8676V12.8745V12.8813V12.8881V12.8949V12.9017V12.9084V12.9152V12.9219V12.9286V12.9353V12.9419V12.9486V12.9552V12.9618V12.9684V12.9749V12.9815V12.988V12.9945V13.001V13.0074V13.0139V13.0203V13.0267V13.0331V13.0394V13.0458V13.0521V13.0584V13.0647V13.071V13.0772V13.0835V13.0897V13.0959V13.102V13.1082V13.1143V13.1204V13.1265V13.1326V13.1387V13.1447V13.1507V13.1567V13.1627V13.1687V13.1746V13.1805V13.1865V13.1923V13.1982V13.2041V13.2099V13.2157V13.2215V13.2273V13.233V13.2388V13.2445V13.2502V13.2559V13.2615V13.2672V13.2728V13.2784V13.284V13.2896V13.2951V13.3007V13.3062V13.3117V13.3171V13.3226V13.328V13.3335V13.3389V13.3443V13.3496V13.355V13.3603V13.3656V13.3709V13.3762V13.3815V13.3867V13.3919V13.3971V13.4023V13.4075V13.4126V13.4178V13.4229V13.428V13.4331V13.4381V13.4432V13.4482V13.4532V13.4582V13.4632V13.4681V13.4731V13.478V13.4829V13.4878V13.4926V13.4975V13.5023V13.5071V13.5119V13.5167V13.5214V13.5262V13.5309V13.5356V13.5403V13.545V13.5496V13.5543V13.5589V13.5635V13.5681V13.5726V13.5772V13.5817V13.5862V13.5907V13.5952V13.5997V13.6041V13.6086V13.613V13.6174V13.6218V13.6261V13.6305V13.6348V13.6391V13.6434V13.6477V13.6519V13.6562V13.6604V13.6646V13.6688V13.673V13.6771V13.6813V13.6854V13.6895V13.6936V13.6977V13.7017V13.7058V13.7098V13.7138V13.7178V13.7218V13.7257V13.7297V13.7336V13.7375V13.7414V13.7453V13.7491V13.753V13.7568V13.7606V13.7644V13.7682V13.7719V13.7757V13.7794V13.7831V13.7868V13.7905V13.7941V13.7978V13.8014V13.805V13.8086V13.8122V13.8158V13.8193V13.8229V13.8264V13.8299V13.8334V13.8368V13.8403V13.8437V13.8471V13.8505V13.8539V13.8573V13.8607V13.864V13.8673V13.8706V13.8739V13.8772V13.8805V13.8837V13.887V13.8902V13.8934V13.8966V13.8997V13.9029V13.906V13.9091V13.9123V13.9153V13.9184V13.9215V13.9245V13.9276V13.9306V13.9336V13.9366V13.9395V13.9425V13.9454V13.9483V13.9513V13.9541V13.957V13.9599V13.9627V13.9656V13.9684V13.9712V13.974V13.9767V13.9795V13.9822V13.985V13.9877V13.9904V13.9931V13.9957V13.9984V14.001V14.0036V14.0062V14.0088V14.0114V14.014V14.0165V14.0191V14.0216V14.0241V14.0266V14.029V14.0315V14.034V14.0364V14.0388V14.0412V14.0436V14.046V14.0483V14.0507V14.053V14.0553V14.0576V14.0599V14.0622V14.0644V14.0667V14.0689V14.0711V14.0733V14.0755V14.0777V14.0798V14.082V14.0841V14.0862V14.0883V14.0904V14.0925V14.0946V14.0966V14.0986V14.1006V14.1027V14.1046V14.1066V14.1086V14.1105V14.1125V14.1144V14.1163V14.1182V14.1201V14.1219V14.1238V14.1256V14.1274V14.1292V14.131V14.1328V14.1346V14.1364V14.1381V14.1398V14.1415V14.1432V14.1449V14.1466V14.1483V14.1499V14.1516V14.1532V14.1548V14.1564V14.158V14.1595V14.1611V14.1626V14.1642V14.1657V14.1672V14.1687V14.1701V14.1716V14.173V14.1745V14.1759V14.1773V14.1787V14.1801V14.1815V14.1828V14.1842V14.1855V14.1868V14.1881V14.1894V14.1907V14.192V14.1932V14.1945V14.1957V14.1969V14.1981V14.1993V14.2005V14.2017V14.2028V14.204V14.2051V14.2062V14.2073V14.2084V14.2095V14.2105V14.2116V14.2126V14.2137V14.2147V14.2157V14.2176V14.2196V14.2214V14.2233V14.225V14.2268V14.2284V14.2301V14.2317V14.2332V14.2347V14.2361V14.2375V14.2388V14.2401V14.2414V14.2426V14.2437V14.2448V14.2459V14.2469V14.2484V14.2497V14.2509V14.2521V14.2531V14.2543V14.2553V14.2564V14.2574C15 14.6672 14.6666 15 14.2553 15C13.844 15 13.5106 14.6678 13.5106 14.2579V14.2569V14.2558V14.2546V14.2534V14.2521V14.2509V14.2497V14.2484V14.2469V14.2459V14.2448V14.2437V14.2426V14.2414V14.2401V14.2388V14.2375V14.2361V14.2347V14.2332V14.2317V14.2301V14.2284V14.2268V14.225V14.2233V14.2214V14.2196V14.2176V14.2157V14.2147V14.2137V14.2126V14.2116V14.2105V14.2095V14.2084V14.2073V14.2062V14.2051V14.204V14.2028V14.2017V14.2005V14.1993V14.1981V14.1969V14.1957V14.1945V14.1932V14.192V14.1907V14.1894V14.1881V14.1868V14.1855V14.1842V14.1828V14.1815V14.1801V14.1787V14.1773V14.1759V14.1745V14.173V14.1716V14.1701V14.1687V14.1672V14.1657V14.1642V14.1626V14.1611V14.1595V14.158V14.1564V14.1548V14.1532V14.1516V14.1499V14.1483V14.1466V14.1449V14.1432V14.1415V14.1398V14.1381V14.1364V14.1346V14.1328V14.131V14.1292V14.1274V14.1256V14.1238V14.1219V14.1201V14.1182V14.1163V14.1144V14.1125V14.1105V14.1086V14.1066V14.1046V14.1027V14.1006V14.0986V14.0966V14.0946V14.0925V14.0904V14.0883V14.0862V14.0841V14.082V14.0798V14.0777V14.0755V14.0733V14.0711V14.0689V14.0667V14.0644V14.0622V14.0599V14.0576V14.0553V14.053V14.0507V14.0483V14.046V14.0436V14.0412V14.0388V14.0364V14.034V14.0315V14.029V14.0266V14.0241V14.0216V14.0191V14.0165V14.014V14.0114V14.0088V14.0062V14.0036V14.001V13.9984V13.9957V13.9931V13.9904V13.9877V13.985V13.9822V13.9795V13.9767V13.974V13.9712V13.9684V13.9656V13.9627V13.9599V13.957V13.9541V13.9513V13.9483V13.9454V13.9425V13.9395V13.9366V13.9336V13.9306V13.9276V13.9245V13.9215V13.9184V13.9153V13.9123V13.9091V13.906V13.9029V13.8997V13.8966V13.8934V13.8902V13.887V13.8837V13.8805V13.8772V13.8739V13.8706V13.8673V13.864V13.8607V13.8573V13.8539V13.8505V13.8471V13.8437V13.8403V13.8368V13.8334V13.8299V13.8264V13.8229V13.8193V13.8158V13.8122V13.8086V13.805V13.8014V13.7978V13.7941V13.7905V13.7868V13.7831V13.7794V13.7757V13.7719V13.7682V13.7644V13.7606V13.7568V13.753V13.7491V13.7453V13.7414V13.7375V13.7336V13.7297V13.7257V13.7218V13.7178V13.7138V13.7098V13.7058V13.7017V13.6977V13.6936V13.6895V13.6854V13.6813V13.6771V13.673V13.6688V13.6646V13.6604V13.6562V13.6519V13.6477V13.6434V13.6391V13.6348V13.6305V13.6261V13.6218V13.6174V13.613V13.6086V13.6041V13.5997V13.5952V13.5907V13.5862V13.5817V13.5772V13.5726V13.5681V13.5635V13.5589V13.5543V13.5496V13.545V13.5403V13.5356V13.5309V13.5262V13.5214V13.5167V13.5119V13.5071V13.5023V13.4975V13.4926V13.4878V13.4829V13.478V13.4731V13.4681V13.4632V13.4582V13.4532V13.4482V13.4432V13.4381V13.4331V13.428V13.4229V13.4178V13.4126V13.4075V13.4023V13.3971V13.3919V13.3867V13.3815V13.3762V13.3709V13.3656V13.3603V13.355V13.3496V13.3443V13.3389V13.3335V13.328V13.3226V13.3171V13.3117V13.3062V13.3007V13.2951V13.2896V13.284V13.2784V13.2728V13.2672V13.2615V13.2559V13.2502V13.2445V13.2388V13.233V13.2273V13.2215V13.2157V13.2099V13.2041V13.1982V13.1923V13.1865V13.1805V13.1746V13.1687V13.1627V13.1567V13.1507V13.1447V13.1387V13.1326V13.1265V13.1204V13.1143V13.1082V13.102V13.0959V13.0897V13.0835V13.0772V13.071V13.0647V13.0584V13.0521V13.0458V13.0394V13.0331V13.0267V13.0203V13.0139V13.0074V13.001V12.9945V12.988V12.9815V12.9749V12.9684V12.9618V12.9552V12.9486V12.9419V12.9353V12.9286V12.9219V12.9152V12.9084V12.9017V12.8949V12.8881V12.8813V12.8745V12.8676V12.8607V12.8538V12.8469V12.84V12.833V12.8261V12.8191V12.812V12.805V12.798V12.7909V12.7838V12.7767V12.7695V12.7624V12.7552V12.748V12.7408V12.7336V12.7263V12.719V12.7117V12.7044V12.6971V12.6897V12.6823V12.6749V12.6675V12.6601V12.6526V12.6451V12.6376V12.6301V12.6226V12.615V12.6074V12.5998V12.5922V12.5845V12.5769V12.5692V12.5615V12.5537V12.546V12.5382V12.5304V12.5226V12.5148V12.5069V12.4991V12.4912V12.4833V12.4753V12.4674V12.4594V12.4514V12.4434V12.4353V12.4272V12.4192V12.4111C13.5106 12.1184 13.3962 11.7286 13.104 11.418C12.8284 11.1249 12.3398 10.8445 11.4752 10.8445C11.0639 10.8445 10.7305 10.5123 10.7305 10.1025Z" fill="#132985"/>
<path d="M2.49061 12.5251C2.48955 12.5283 2.48937 12.5289 2.48937 12.5265V12.5316V12.5366V12.5417V12.5468V12.5519V12.5569V12.562V12.5671V12.5722V12.5772V12.5823V12.5874V12.5924V12.5975V12.6026V12.6076V12.6127V12.6178V12.6228V12.6279V12.633V12.638V12.6431V12.6482V12.6532V12.6583V12.6633V12.6684V12.6735V12.6785V12.6836V12.6886V12.6937V12.6987V12.7038V12.7088V12.7139V12.7189V12.724V12.729V12.734V12.7391V12.7441V12.7491V12.7542V12.7592V12.7642V12.7693V12.7743V12.7793V12.7843V12.7894V12.7944V12.7994V12.8044V12.8094V12.8144V12.8195V12.8245V12.8295V12.8345V12.8395V12.8445V12.8495V12.8545V12.8594V12.8644V12.8694V12.8744V12.8794V12.8843V12.8893V12.8943V12.8993V12.9042V12.9092V12.9141V12.9191V12.9241V12.929V12.934V12.9389V12.9438V12.9488V12.9537V12.9586V12.9636V12.9685V12.9734V12.9783V12.9832V12.9882V12.9931V12.998V13.0029V13.0078V13.0127V13.0175V13.0224V13.0273V13.0322V13.0371V13.0419V13.0468V13.0517V13.0565V13.0614V13.0662V13.0711V13.0759V13.0807V13.0856V13.0904V13.0952V13.1V13.1049V13.1097V13.1145V13.1193V13.1241V13.1289V13.1336V13.1384V13.1432V13.148V13.1527V13.1575V13.1623V13.167V13.1718V13.1765V13.1812V13.186V13.1907V13.1954V13.2002V13.2049V13.2096V13.2143V13.219V13.2237V13.2283V13.233V13.2377V13.2424V13.247V13.2517V13.2563V13.261V13.2656V13.2703V13.2749V13.2795V13.2841V13.2887V13.2933V13.2979V13.3025V13.3071V13.3117V13.3163V13.3208V13.3254V13.33V13.3345V13.339V13.3436V13.3481V13.3526V13.3572V13.3617V13.3662V13.3707V13.3752V13.3796V13.3841V13.3886V13.393V13.3975V13.402V13.4064V13.4108V13.4153V13.4197V13.4241V13.4285V13.4329V13.4373V13.4417V13.4461V13.4504V13.4548V13.4591V13.4635V13.4678V13.4722V13.4765V13.4808V13.4851V13.4894V13.4937V13.498V13.5023V13.5066V13.5108V13.5151V13.5193V13.5236V13.5278V13.532V13.5362V13.5404V13.5446V13.5488V13.553V13.5572V13.5613V13.5655V13.5697V13.5738V13.5779V13.582V13.5862V13.5903V13.5944V13.5985V13.6025V13.6066V13.6107V13.6147V13.6188V13.6228V13.6268V13.6308V13.6349V13.6389V13.6428V13.6468V13.6508V13.6548V13.6587V13.6627V13.6666V13.6705V13.6744V13.6783V13.6822V13.6861V13.69V13.6939V13.6977V13.7016V13.7054V13.7092V13.7131V13.7169V13.7207V13.7245V13.7282V13.732V13.7358V13.7395V13.7433V13.747V13.7507V13.7544V13.7581V13.7618V13.7655V13.7691V13.7728V13.7764V13.7801V13.7837V13.7873V13.7909V13.7945V13.7981V13.8017V13.8052V13.8088V13.8123V13.8159V13.8194V13.8229V13.8264V13.8299V13.8333V13.8368V13.8402V13.8437V13.8471V13.8505V13.8539V13.8573V13.8607V13.8641V13.8674V13.8708V13.8741V13.8775V13.8808V13.8841V13.8874V13.8906V13.8939V13.8972V13.9004V13.9036V13.9069V13.9101V13.9133V13.9164V13.9196V13.9228V13.9259V13.929V13.9322V13.9353V13.9384V13.9415V13.9445V13.9476V13.9506V13.9537V13.9567V13.9597V13.9627V13.9657V13.9687V13.9716V13.9746V13.9775V13.9804V13.9833V13.9862V13.9891V13.992V13.9948V13.9977V14.0005V14.0033V14.0061V14.0089V14.0117V14.0144V14.0172V14.0199V14.0227V14.0254V14.0281V14.0307V14.0334V14.0361V14.0387V14.0413V14.0439V14.0465V14.0491V14.0517V14.0543V14.0568V14.0593V14.0618V14.0644V14.0668V14.0693V14.0718V14.0742V14.0766V14.0791V14.0815V14.0839V14.0862V14.0886V14.0909V14.0933V14.0956V14.0979V14.1002V14.1024V14.1047V14.1069V14.1092V14.1114V14.1136V14.1157V14.1179V14.1201V14.1222V14.1243V14.1264V14.1285V14.1306V14.1327V14.1347V14.1367V14.1387V14.1407V14.1427V14.1447V14.1467V14.1486V14.1505V14.1524V14.1543V14.1562V14.158V14.1599V14.1617V14.1635V14.1653V14.1671V14.1689V14.1706V14.1723V14.1741V14.1758V14.1774V14.1791V14.1808V14.1824V14.184V14.1856V14.1872V14.1888V14.1903V14.1919V14.1934V14.1949V14.1964V14.1978V14.1993V14.2007V14.2022V14.2036V14.2049V14.2063V14.2077V14.209V14.2103V14.2116V14.2129V14.2142V14.2154V14.2166V14.2179V14.2191V14.2202V14.2214V14.2225V14.2237V14.2248V14.2259V14.227V14.228V14.2291V14.2301V14.2311V14.233V14.2349V14.2367V14.2385V14.2401V14.2417V14.2433V14.2447V14.2461V14.2474V14.2486V14.2498V14.2509V14.2519V14.2532V14.2544V14.2554V14.2565V14.2576C2.48937 14.6674 2.15596 15 1.74468 15H9.88992C9.47865 15 9.14524 14.6678 9.14524 14.258V14.2567V14.2528V14.2368V14.17L9.14524 13.8792V12.5265C9.14524 12.5289 9.14505 12.5283 9.144 12.5251C9.13495 12.4972 9.06206 12.2723 8.49409 12.0089C7.91875 11.742 7.0148 11.5371 5.81731 11.5371C4.61981 11.5371 3.71586 11.742 3.14052 12.0089C2.57255 12.2723 2.49965 12.4972 2.49061 12.5251Z" fill="#132985"/>
<path d="M8.53234 5.25442C8.53234 6.78442 7.31676 8.02473 5.81726 8.02473C4.31776 8.02473 3.10218 6.78442 3.10218 5.25442C3.10218 3.72441 4.31776 2.4841 5.81726 2.4841C7.31676 2.4841 8.53234 3.72441 8.53234 5.25442Z" fill="#132985"/>
<path d="M14.2553 15C13.844 15 13.5106 14.6678 13.5106 14.2579V14.2569V14.2558V14.2546V14.2534V14.2521V14.2509V14.2497V14.2484V14.2469V14.2459V14.2448V14.2437V14.2426V14.2414V14.2401V14.2388V14.2375V14.2361V14.2347V14.2332V14.2317V14.2301V14.2284V14.2268V14.225V14.2233V14.2214V14.2196V14.2176V14.2157V14.2147V14.2137V14.2126V14.2116V14.2105V14.2095V14.2084V14.2073V14.2062V14.2051V14.204V14.2028V14.2017V14.2005V14.1993V14.1981V14.1969V14.1957V14.1945V14.1932V14.192V14.1907V14.1894V14.1881V14.1868V14.1855V14.1842V14.1828V14.1815V14.1801V14.1787V14.1773V14.1759V14.1745V14.173V14.1716V14.1701V14.1687V14.1672V14.1657V14.1642V14.1626V14.1611V14.1595V14.158V14.1564V14.1548V14.1532V14.1516V14.1499V14.1483V14.1466V14.1449V14.1432V14.1415V14.1398V14.1381V14.1364V14.1346V14.1328V14.131V14.1292V14.1274V14.1256V14.1238V14.1219V14.1201V14.1182V14.1163V14.1144V14.1125V14.1105V14.1086V14.1066V14.1046V14.1027V14.1006V14.0986V14.0966V14.0946V14.0925V14.0904V14.0883V14.0862V14.0841V14.082V14.0798V14.0777V14.0755V14.0733V14.0711V14.0689V14.0667V14.0644V14.0622V14.0599V14.0576V14.0553V14.053V14.0507V14.0483V14.046V14.0436V14.0412V14.0388V14.0364V14.034V14.0315V14.029V14.0266V14.0241V14.0216V14.0191V14.0165V14.014V14.0114V14.0088V14.0062V14.0036V14.001V13.9984V13.9957V13.9931V13.9904V13.9877V13.985V13.9822V13.9795V13.9767V13.974V13.9712V13.9684V13.9656V13.9627V13.9599V13.957V13.9541V13.9513V13.9483V13.9454V13.9425V13.9395V13.9366V13.9336V13.9306V13.9276V13.9245V13.9215V13.9184V13.9153V13.9123V13.9091V13.906V13.9029V13.8997V13.8966V13.8934V13.8902V13.887V13.8837V13.8805V13.8772V13.8739V13.8706V13.8673V13.864V13.8607V13.8573V13.8539V13.8505V13.8471V13.8437V13.8403V13.8368V13.8334V13.8299V13.8264V13.8229V13.8193V13.8158V13.8122V13.8086V13.805V13.8014V13.7978V13.7941V13.7905V13.7868V13.7831V13.7794V13.7757V13.7719V13.7682V13.7644V13.7606V13.7568V13.753V13.7491V13.7453V13.7414V13.7375V13.7336V13.7297V13.7257V13.7218V13.7178V13.7138V13.7098V13.7058V13.7017V13.6977V13.6936V13.6895V13.6854V13.6813V13.6771V13.673V13.6688V13.6646V13.6604V13.6562V13.6519V13.6477V13.6434V13.6391V13.6348V13.6305V13.6261V13.6218V13.6174V13.613V13.6086V13.6041V13.5997V13.5952V13.5907V13.5862V13.5817V13.5772V13.5726V13.5681V13.5635V13.5589V13.5543V13.5496V13.545V13.5403V13.5356V13.5309V13.5262V13.5214V13.5167V13.5119V13.5071V13.5023V13.4975V13.4926V13.4878V13.4829V13.478V13.4731V13.4681V13.4632V13.4582V13.4532V13.4482V13.4432V13.4381V13.4331V13.428V13.4229V13.4178V13.4126V13.4075V13.4023V13.3971V13.3919V13.3867V13.3815V13.3762V13.3709V13.3656V13.3603V13.355V13.3496V13.3443V13.3389V13.3335V13.328V13.3226V13.3171V13.3117V13.3062V13.3007V13.2951V13.2896V13.284V13.2784V13.2728V13.2672V13.2615V13.2559V13.2502V13.2445V13.2388V13.233V13.2273V13.2215V13.2157V13.2099V13.2041V13.1982V13.1923V13.1865V13.1805V13.1746V13.1687V13.1627V13.1567V13.1507V13.1447V13.1387V13.1326V13.1265V13.1204V13.1143V13.1082V13.102V13.0959V13.0897V13.0835V13.0772V13.071V13.0647V13.0584V13.0521V13.0458V13.0394V13.0331V13.0267V13.0203V13.0139V13.0074V13.001V12.9945V12.988V12.9815V12.9749V12.9684V12.9618V12.9552V12.9486V12.9419V12.9353V12.9286V12.9219V12.9152V12.9084V12.9017V12.8949V12.8881V12.8813V12.8745V12.8676V12.8607V12.8538V12.8469V12.84V12.833V12.8261V12.8191V12.812V12.805V12.798V12.7909V12.7838V12.7767V12.7695V12.7624V12.7552V12.748V12.7408V12.7336V12.7263V12.719V12.7117V12.7044V12.6971V12.6897V12.6823V12.6749V12.6675V12.6601V12.6526V12.6451V12.6376V12.6301V12.6226V12.615V12.6074V12.5998V12.5922V12.5845V12.5769V12.5692V12.5615V12.5537V12.546V12.5382V12.5304V12.5226V12.5148V12.5069V12.4991V12.4912V12.4833V12.4753V12.4674V12.4594V12.4514V12.4434V12.4353V12.4272V12.4192V12.4111C13.5106 12.1184 13.3962 11.7286 13.104 11.418C12.8284 11.1249 12.3398 10.8445 11.4752 10.8445C11.0639 10.8445 10.7305 10.5123 10.7305 10.1025C10.7305 10.1025 11.2996 11.2291 11.4752 12.0089C11.7318 13.1484 11.4752 15 11.4752 15H14.2553Z" fill="#132985"/>
<path d="M10.4472 8.02473C10.4472 7.61491 11.0639 7.28267 11.4752 7.28267C12.5993 7.28267 13.5106 6.37459 13.5106 5.2544C13.5106 4.13422 12.5993 3.22614 11.4752 3.22614C11.0639 3.22614 10.4472 2.89392 10.4472 2.4841C10.4472 2.4841 11.0747 4.16358 11.0747 5.2544C11.0747 6.34523 10.4472 8.02473 10.4472 8.02473Z" fill="#132985"/>
</svg>
