<svg width="5" height="14" viewBox="0 0 5 14" fill="none" xmlns="http://www.w3.org/2000/svg">
<path d="M2.49998 13.6673C2.04165 13.6673 1.64942 13.5043 1.32331 13.1782C0.996647 12.8515 0.833313 12.459 0.833313 12.0007C0.833313 11.5423 0.996647 11.1498 1.32331 10.8232C1.64942 10.497 2.04165 10.334 2.49998 10.334C2.95831 10.334 3.35081 10.497 3.67748 10.8232C4.00359 11.1498 4.16665 11.5423 4.16665 12.0007C4.16665 12.459 4.00359 12.8515 3.67748 13.1782C3.35081 13.5043 2.95831 13.6673 2.49998 13.6673ZM2.49998 8.66732C2.04165 8.66732 1.64942 8.50398 1.32331 8.17732C0.996647 7.85121 0.833313 7.45898 0.833313 7.00065C0.833313 6.54232 0.996647 6.14982 1.32331 5.82315C1.64942 5.49704 2.04165 5.33398 2.49998 5.33398C2.95831 5.33398 3.35081 5.49704 3.67748 5.82315C4.00359 6.14982 4.16665 6.54232 4.16665 7.00065C4.16665 7.45898 4.00359 7.85121 3.67748 8.17732C3.35081 8.50398 2.95831 8.66732 2.49998 8.66732ZM2.49998 3.66732C2.04165 3.66732 1.64942 3.50398 1.32331 3.17732C0.996647 2.85121 0.833313 2.45898 0.833313 2.00065C0.833313 1.54232 0.996647 1.1501 1.32331 0.823984C1.64942 0.497318 2.04165 0.333984 2.49998 0.333984C2.95831 0.333984 3.35081 0.497318 3.67748 0.823984C4.00359 1.1501 4.16665 1.54232 4.16665 2.00065C4.16665 2.45898 4.00359 2.85121 3.67748 3.17732C3.35081 3.50398 2.95831 3.66732 2.49998 3.66732Z" fill="#696969"/>
</svg>
